<?xml version="1.0" standalone="no"?>
<!DOCTYPE svg PUBLIC "-//W3C//DTD SVG 20010904//EN"
 "http://www.w3.org/TR/2001/REC-SVG-20010904/DTD/svg10.dtd">
<svg version="1.0" xmlns="http://www.w3.org/2000/svg"
 width="729.000000pt" height="635.000000pt" viewBox="0 0 729.000000 635.000000"
 preserveAspectRatio="xMidYMid meet">

<g transform="translate(0.000000,635.000000) scale(0.100000,-0.100000)"
fill="#000000" stroke="none">
<path d="M1640 6217 l0 -63 48 -13 c72 -21 113 -45 158 -93 82 -86 122 -177
149 -342 13 -82 15 -237 15 -1051 l0 -955 383 2 382 3 1 383 c0 210 4 385 7
388 3 4 9 -7 12 -22 4 -16 19 -67 35 -114 15 -47 51 -159 80 -250 29 -91 72
-223 95 -295 24 -71 56 -173 71 -225 15 -52 35 -120 45 -150 10 -30 43 -136
74 -235 31 -99 88 -277 125 -395 38 -118 86 -269 106 -335 31 -104 114 -363
225 -707 17 -54 35 -98 40 -98 5 0 9 4 9 9 0 5 71 85 158 178 87 92 229 246
315 342 l157 174 0 484 c0 265 -1 483 -3 483 -2 0 -46 -48 -98 -107 -52 -59
-108 -122 -126 -141 -18 -18 -48 -54 -67 -80 -19 -26 -53 -65 -75 -86 l-40
-39 -10 26 c-6 14 -20 59 -31 99 -12 40 -26 82 -30 93 -5 11 -16 45 -24 75 -7
30 -33 116 -55 190 -23 74 -49 160 -58 190 -9 30 -28 93 -43 140 -15 47 -38
119 -50 160 -12 41 -26 86 -30 100 -5 14 -27 88 -50 165 -23 77 -51 165 -62
195 -11 30 -26 78 -33 105 -7 28 -20 73 -28 100 -9 28 -30 97 -47 155 -18 58
-44 143 -60 190 -15 47 -49 155 -75 240 -48 158 -78 257 -120 390 -13 41 -33
109 -45 150 -12 41 -25 85 -31 98 -5 13 -9 33 -9 45 0 13 -4 27 -9 33 -8 9
-15 30 -61 184 -12 41 -28 91 -35 110 -7 19 -22 67 -33 105 l-19 70 -617 3
-616 2 0 -63z"/>
<path d="M4427 6253 c-3 -16 -15 -55 -27 -88 -11 -33 -30 -91 -40 -130 -11
-38 -35 -117 -54 -175 -66 -200 -106 -334 -106 -351 0 -10 -4 -21 -10 -24 -5
-3 -10 -15 -10 -26 0 -10 -4 -27 -9 -37 -5 -9 -13 -33 -18 -52 -20 -69 -46
-155 -53 -175 -4 -11 -21 -65 -38 -120 -93 -310 -166 -543 -242 -775 -15 -47
-39 -121 -53 -166 l-24 -81 22 -74 c13 -41 42 -137 65 -214 23 -77 52 -174 65
-215 13 -41 43 -136 66 -210 23 -74 47 -149 55 -165 7 -17 19 -52 26 -78 12
-46 25 -60 32 -34 18 66 73 262 97 342 16 55 34 114 39 130 45 155 64 214 75
240 7 17 29 84 50 150 20 66 40 129 45 140 5 11 12 36 16 55 3 19 10 41 14 50
4 8 29 80 55 160 26 80 51 148 54 152 3 4 5 -846 3 -1889 -2 -1821 -3 -1899
-21 -1983 -48 -216 -146 -339 -298 -371 l-53 -10 0 -65 0 -64 755 0 756 0 -3
63 -3 62 -45 13 c-130 37 -212 110 -258 229 -66 170 -62 7 -62 2713 0 2392 1
2458 20 2555 24 125 40 170 83 237 63 98 158 164 246 171 19 1 21 8 21 69 l0
68 -614 0 -614 0 -5 -27z"/>
<path d="M77 5313 c-15 -4 -17 -14 -15 -66 l3 -61 45 -11 c67 -17 101 -38 152
-93 80 -85 125 -201 144 -372 4 -36 8 -729 9 -1540 2 -1619 3 -1589 -57 -1743
-54 -135 -178 -247 -275 -247 l-33 0 0 -70 0 -70 750 0 751 0 -3 67 -3 66 -55
12 c-75 15 -106 34 -168 99 -58 61 -93 131 -124 246 -19 71 -20 111 -23 695
-2 341 -1 628 1 638 5 16 59 17 956 17 l950 0 -5 23 c-3 12 -13 47 -22 77 -9
30 -22 75 -29 100 -7 25 -40 128 -73 230 l-59 185 -856 3 -856 2 -4 24 c-8 40
-2 1176 6 1231 14 93 47 200 76 245 66 101 142 160 227 178 l38 8 3 67 3 67
-718 -1 c-395 -1 -726 -3 -736 -6z"/>
<path d="M5907 5288 c-20 -27 -125 -188 -184 -283 -40 -64 -127 -201 -172
-269 l-51 -79 0 -556 c0 -306 3 -567 7 -579 6 -23 7 -22 32 16 27 43 126 187
266 387 46 66 134 197 197 292 62 94 116 172 121 172 4 1 6 -626 4 -1391 -3
-1548 1 -1447 -72 -1600 -38 -82 -100 -154 -156 -184 -19 -10 -59 -23 -89 -29
l-55 -12 -3 -66 -3 -67 751 0 750 0 0 69 0 68 -49 7 c-128 17 -235 145 -293
351 l-23 80 -3 1495 c-4 1561 -4 1563 40 1752 23 101 69 180 142 245 44 39
117 73 157 73 14 0 18 11 21 54 1 29 2 61 0 70 -3 15 -61 16 -657 16 l-654 0
-24 -32z"/>
<path d="M2008 1648 c-3 -1014 -4 -1024 -25 -1100 -30 -106 -63 -166 -120
-219 -62 -58 -84 -70 -153 -84 l-55 -12 -3 -66 -3 -67 751 0 750 0 0 64 0 63
-33 6 c-50 8 -121 44 -170 87 -51 45 -94 122 -132 235 -36 106 -36 125 -38
1210 l-2 900 -382 3 -382 2 -3 -1022z"/>
</g>
</svg>
